<svg width="50" height="50" viewBox="0 0 50 50" fill="none" xmlns="http://www.w3.org/2000/svg">
<path d="M35.9375 21.8906V6.25C35.9375 4.52342 34.5391 3.125 32.8125 3.125H6.25C4.52342 3.125 3.125 4.52342 3.125 6.25V35.9375C3.125 37.664 4.52342 39.0625 6.25 39.0625H25V27.3438C25 23.8828 29.6406 22.3359 34.375 21.9688C34.8984 21.9219 35.4219 21.8984 35.9375 21.8906ZM7.8125 7.8125H24.2188C24.6506 7.8125 25 8.16193 25 8.59375C25 9.02557 24.6506 9.375 24.2188 9.375H7.8125C7.38068 9.375 7.03125 9.02557 7.03125 8.59375C7.03125 8.16193 7.38068 7.8125 7.8125 7.8125ZM7.8125 12.8128H24.2188C24.6506 12.8128 25 13.1622 25 13.5941C25 14.0259 24.6506 14.3753 24.2188 14.3753H7.8125C7.38068 14.3753 7.03125 14.0259 7.03125 13.5941C7.03125 13.1622 7.38068 12.8128 7.8125 12.8128ZM7.8125 17.8123H10.9375C11.3693 17.8123 11.7188 18.1618 11.7188 18.5936C11.7188 19.0254 11.3693 19.3748 10.9375 19.3748H7.8125C7.38068 19.3748 7.03125 19.0254 7.03125 18.5936C7.03125 18.1618 7.38068 17.8123 7.8125 17.8123ZM7.8125 22.8127H11.0168C11.4487 22.8127 11.7981 23.1621 11.7981 23.5939C11.7981 24.0257 11.4487 24.3752 11.0168 24.3752H7.8125C7.38068 24.3752 7.03125 24.0257 7.03125 23.5939C7.03125 23.1621 7.38068 22.8127 7.8125 22.8127ZM14.0625 34.375H7.8125C7.38068 34.375 7.03125 34.0256 7.03125 33.5938C7.03125 33.1619 7.38068 32.8125 7.8125 32.8125H14.0625C14.4943 32.8125 14.8438 33.1619 14.8438 33.5938C14.8438 34.0256 14.4943 34.375 14.0625 34.375ZM14.0625 29.3747H7.8125C7.38068 29.3747 7.03125 29.0253 7.03125 28.5934C7.03125 28.1616 7.38068 27.8122 7.8125 27.8122H14.0625C14.4943 27.8122 14.8438 28.1616 14.8438 28.5934C14.8438 29.0253 14.4943 29.3747 14.0625 29.3747ZM21.0938 34.375H17.9688C17.5369 34.375 17.1875 34.0256 17.1875 33.5938C17.1875 33.1619 17.5369 32.8125 17.9688 32.8125H21.0938C21.5256 32.8125 21.875 33.1619 21.875 33.5938C21.875 34.0256 21.5256 34.375 21.0938 34.375ZM21.0938 29.3747H17.9688C17.5369 29.3747 17.1875 29.0253 17.1875 28.5934C17.1875 28.1616 17.5369 27.8122 17.9688 27.8122H21.0938C21.5256 27.8122 21.875 28.1616 21.875 28.5934C21.875 29.0253 21.5256 29.3747 21.0938 29.3747ZM21.875 24.3752H14.9231C14.4913 24.3752 14.1418 24.0257 14.1418 23.5939C14.1418 23.1621 14.4913 22.8127 14.9231 22.8127H21.875C22.3068 22.8127 22.6562 23.1621 22.6562 23.5939C22.6562 24.0257 22.3068 24.3752 21.875 24.3752ZM31.25 19.3748H14.8438C14.4119 19.3748 14.0625 19.0254 14.0625 18.5936C14.0625 18.1618 14.4119 17.8123 14.8438 17.8123H31.25C31.6818 17.8123 32.0312 18.1618 32.0312 18.5936C32.0312 19.0254 31.6818 19.3748 31.25 19.3748ZM31.25 14.3753H28.125C27.6932 14.3753 27.3438 14.0259 27.3438 13.5941C27.3438 13.1622 27.6932 12.8128 28.125 12.8128H31.25C31.6818 12.8128 32.0312 13.1622 32.0312 13.5941C32.0312 14.0259 31.6818 14.3753 31.25 14.3753ZM31.25 9.375H28.125C27.6932 9.375 27.3438 9.02557 27.3438 8.59375C27.3438 8.16193 27.6932 7.8125 28.125 7.8125H31.25C31.6818 7.8125 32.0312 8.16193 32.0312 8.59375C32.0312 9.02557 31.6818 9.375 31.25 9.375Z" fill="#B0B0B0"/>
<path d="M26.5625 27.3438C26.5625 29.9084 31.6719 31.25 36.7188 31.25C41.7656 31.25 46.875 29.9084 46.875 27.3438C46.875 24.7791 41.7656 23.4375 36.7188 23.4375C31.6719 23.4375 26.5625 24.7791 26.5625 27.3438Z" fill="#B0B0B0"/>
<path d="M36.7188 32.8123C33.7265 32.8123 30.4531 32.3748 28.125 31.2966C27.5391 31.0232 27.0078 30.7107 26.5625 30.3513V35.156C26.5625 37.7185 31.6719 39.0623 36.7188 39.0623C41.7656 39.0623 46.875 37.7185 46.875 35.156V30.3513C46.4297 30.7107 45.8984 31.0232 45.3125 31.2966C42.9844 32.3748 39.711 32.8123 36.7188 32.8123ZM31.25 36.1326C30.8185 36.1326 30.4688 35.7828 30.4688 35.3513C30.4688 34.9198 30.8185 34.5701 31.25 34.5701C31.6815 34.5701 32.0312 34.9198 32.0312 35.3513C32.0312 35.7828 31.6815 36.1326 31.25 36.1326ZM42.3687 36.1112C40.7043 36.5087 38.7505 36.7185 36.7188 36.7185C36.171 36.7185 35.6316 36.7025 35.1082 36.6701C34.6775 36.6438 34.3498 36.273 34.3765 35.8423C34.4032 35.412 34.7694 35.0793 35.2043 35.1106C35.6964 35.1408 36.2038 35.156 36.7188 35.156C38.6303 35.156 40.4587 34.9607 42.0063 34.5915C42.4236 34.4923 42.8475 34.7501 42.9474 35.1701C43.0477 35.5898 42.7887 36.0109 42.3687 36.1112Z" fill="#B0B0B0"/>
<path d="M26.5625 38.1638V42.9685C26.5625 45.531 31.6719 46.8748 36.7188 46.8748C41.7656 46.8748 46.875 45.531 46.875 42.9685V38.1638C44.664 39.9373 40.4687 40.6248 36.7188 40.6248C32.9688 40.6248 28.7735 39.9373 26.5625 38.1638ZM31.25 43.9451C30.8185 43.9451 30.4688 43.5953 30.4688 43.1638C30.4688 42.7323 30.8185 42.3826 31.25 42.3826C31.6815 42.3826 32.0312 42.7323 32.0312 43.1638C32.0312 43.5953 31.6815 43.9451 31.25 43.9451ZM42.9474 42.9826C43.0477 43.4023 42.7887 43.8234 42.3687 43.9237C40.7044 44.3212 38.7505 44.531 36.7188 44.531C36.171 44.531 35.6316 44.515 35.1082 44.4826C34.6775 44.4563 34.3498 44.0855 34.3765 43.6548C34.4032 43.2241 34.7695 42.8976 35.2043 42.9231C35.6964 42.9533 36.2038 42.9685 36.7188 42.9685C38.6303 42.9685 40.4587 42.7732 42.0063 42.404C42.4236 42.3048 42.8474 42.5626 42.9474 42.9826Z" fill="#B0B0B0"/>
</svg>
