<svg width="40" height="53" viewBox="0 0 40 53" fill="none" xmlns="http://www.w3.org/2000/svg">
<path d="M29.6365 41.7105C32.6675 41.7105 35.1247 39.2534 35.1247 36.2223C35.1247 33.1913 32.6675 30.7341 29.6365 30.7341C26.6054 30.7341 24.1483 33.1913 24.1483 36.2223C24.1483 39.2534 26.6054 41.7105 29.6365 41.7105Z" fill="#B0B0B0"/>
<path d="M37.1442 45.0732C35.3906 44.0399 32.6637 42.8082 29.6365 42.8082C26.6094 42.8082 23.8824 44.0399 22.1288 45.0732C20.6666 45.9361 19.7577 47.6115 19.7577 49.4456V50.1487C19.7577 51.5487 20.8125 52.6871 22.1095 52.6871H37.1636C38.4606 52.6871 39.5154 51.5487 39.5154 50.1487V49.4456C39.5154 47.6115 38.6064 45.9361 37.1442 45.0732Z" fill="#B0B0B0"/>
<path d="M23.0292 41.1596C23.2243 40.8187 23.2243 40.3997 23.0249 40.0598C22.3131 38.84 21.9529 37.5493 21.9529 36.2223C21.9529 31.986 25.4002 28.5387 29.6365 28.5387C30.2432 28.5387 30.7342 28.0478 30.7342 27.441V9.87883C30.7342 9.57485 30.6106 9.3001 30.4113 9.10139L21.6327 0.322914C21.434 0.123588 21.1593 0 20.8553 0H4.39063C1.97021 0 0 1.96908 0 4.39063L0 37.3201C0 39.7415 1.97021 41.7107 4.39063 41.7107H22.0773C22.4696 41.7106 22.8341 41.5006 23.0292 41.1596ZM21.9529 3.74747L26.9867 8.78125H24.1483C22.937 8.78125 21.953 7.79615 21.953 6.58599V3.74747H21.9529Z" fill="#B0B0B0"/>
</svg>
