<svg width="53" height="53" viewBox="0 0 53 53" fill="none" xmlns="http://www.w3.org/2000/svg">
<g clip-path="url(#clip0_15_259)">
<path d="M24.1484 30.1854C24.1484 29.2788 23.4064 28.5389 22.502 28.5389H14.2696V35.1248C14.2696 36.3366 13.2861 37.3201 12.0743 37.3201C10.8625 37.3201 9.87901 36.3366 9.87901 35.1248V28.5389H1.64665C0.739998 28.5389 0.000183105 29.2788 0.000183105 30.1854V51.0407C0.000183105 51.9474 0.739998 52.6872 1.64665 52.6872H22.502C23.4064 52.6872 24.1484 51.9474 24.1484 51.0407V30.1854Z" fill="#B0B0B0"/>
<path d="M52.6873 30.1854C52.6873 29.2788 51.9452 28.5389 51.0408 28.5389H42.8084V35.1248C42.8084 36.3366 41.8249 37.3201 40.6131 37.3201C39.4013 37.3201 38.4178 36.3366 38.4178 35.1248V28.5389H30.1855C29.2788 28.5389 28.539 29.2788 28.539 30.1854V51.0407C28.539 51.9474 29.2788 52.6872 30.1855 52.6872H51.0408C51.9452 52.6872 52.6873 51.9474 52.6873 51.0407V30.1854Z" fill="#B0B0B0"/>
<path d="M38.4178 1.64659C38.4178 0.742132 37.6758 0.00012207 36.7714 0.00012207H28.539V6.58601C28.539 7.79781 27.5555 8.78131 26.3437 8.78131C25.1319 8.78131 24.1484 7.79781 24.1484 6.58601V0.00012207H15.9161C15.0094 0.00012207 14.2696 0.742132 14.2696 1.64659V22.5019C14.2696 23.4086 15.0094 24.1484 15.9161 24.1484H36.7714C37.6758 24.1484 38.4178 23.4086 38.4178 22.5019V1.64659Z" fill="#B0B0B0"/>
</g>
<defs>
<clipPath id="clip0_15_259">
<rect width="52.6871" height="52.6871" fill="white"/>
</clipPath>
</defs>
</svg>
