<svg width="58" height="57" viewBox="0 0 58 57" fill="none" xmlns="http://www.w3.org/2000/svg">
<path fill-rule="evenodd" clip-rule="evenodd" d="M15.1977 38.9037L4.71457 38.8936L4.71879 33.7092C4.71938 33.0642 4.19414 32.5376 3.54926 32.5363L2.35664 32.534L2.36203 26.9345C2.36203 26.2899 1.83938 25.7672 1.19473 25.7672C0.550078 25.7672 0.0274218 26.2899 0.0274218 26.9345L0.021914 32.5295H0.0165234L0 49.5136H0.0055078L0 55.1122C0 55.7568 0.522656 56.2795 1.1673 56.2795C1.81195 56.2795 2.33461 55.7568 2.33461 55.1122L2.34 49.5181L3.53273 49.5204C3.8557 49.521 4.13379 49.4064 4.36254 49.1784C4.59117 48.9503 4.7066 48.6725 4.70684 48.3496L4.71106 43.1725L16.4244 43.1841C17.2111 43.1841 17.8984 42.7594 18.2701 42.127L23.822 32.5642L24.3441 32.8694C25.3593 33.4632 26.7105 33.1155 27.551 32.2805L27.5469 32.2782L18.5386 27.0107C18.2232 28.1527 18.5839 29.502 19.5991 30.0959L20.1287 30.4054L15.1977 38.9037ZM46.5533 10.9361C47.2538 11.3405 47.4938 12.2363 47.0893 12.9367C46.6849 13.6372 45.7891 13.8772 45.0887 13.4727C44.3883 13.0683 44.1483 12.1725 44.5527 11.4721C44.9571 10.7717 45.8529 10.5317 46.5533 10.9361ZM52.4644 10.4253C52.2328 9.56103 51.8325 8.74083 51.2779 8.01802C50.7457 7.3245 50.0687 6.72017 49.2594 6.25235L49.2606 6.25036C48.4553 5.78536 47.5922 5.50177 46.7195 5.38692C45.8133 5.26763 44.9031 5.33044 44.0419 5.5613C43.4174 5.72817 43.0465 6.36966 43.2134 6.99415C43.3802 7.61864 44.0217 7.98954 44.6462 7.82267C45.2225 7.66821 45.8248 7.62532 46.4175 7.70325C46.9877 7.77837 47.5553 7.96575 48.0888 8.27372L48.09 8.27173L48.0934 8.27372C48.6214 8.57853 49.0664 8.97696 49.4195 9.43716C49.7851 9.91364 50.0495 10.4562 50.2031 11.0296C50.37 11.6541 51.0115 12.025 51.636 11.8583C52.2602 11.6911 52.6313 11.0497 52.4644 10.4253ZM43.2674 2.67731C44.5146 2.3431 45.8227 2.25087 47.1148 2.42091C48.3611 2.58497 49.5966 2.99149 50.7531 3.65864L50.7519 3.66064C51.9103 4.32942 52.8807 5.19591 53.645 6.19188C54.4402 7.22806 55.0147 8.40661 55.348 9.65079C55.5149 10.2752 56.1564 10.6462 56.7809 10.4793C57.4054 10.3124 57.7763 9.67095 57.6095 9.04646C57.1982 7.51142 56.4877 6.05524 55.5036 4.77263C54.5549 3.53618 53.354 2.46274 51.9239 1.63704L51.9227 1.63903L51.9193 1.63704C50.4882 0.810869 48.9593 0.307432 47.417 0.104463C45.8113 -0.106943 44.1953 0.00532268 42.6632 0.41583C42.0388 0.582705 41.6678 1.22419 41.8347 1.84868C42.0014 2.47317 42.643 2.84419 43.2674 2.67731ZM28.3675 20.9935L43.1046 29.6206L39.7009 35.4414C39.3714 36.005 38.647 36.1947 38.1448 35.7599C38.1448 35.7599 33.8831 33.2681 28.73 30.2548C25.7517 28.5133 22.4755 26.5976 19.5521 24.8883C18.9353 24.5276 18.334 24.1761 17.7546 23.8373L28.3675 20.9935ZM14.9089 22.1733L10.8864 19.8213C8.19645 18.3899 7.3118 15.0131 8.84895 12.3845L13.2762 4.81259C14.8133 2.1836 18.1902 1.29896 20.8187 2.8361C32.3157 9.55857 43.8127 16.281 55.3096 23.0035C55.5031 23.1166 55.6102 23.3144 55.599 23.5382C55.588 23.7622 55.4619 23.9483 55.2582 24.0418L45.705 28.4272L28.7066 18.4763L14.9089 22.1733ZM17.7573 9.46833L23.7986 13.0009C24.3547 13.3271 25.07 13.1405 25.3962 12.5843C25.7223 12.0282 25.5357 11.3129 24.9796 10.9867L18.9383 7.45411C18.3821 7.12798 17.6668 7.31454 17.3407 7.87071C17.0146 8.42689 17.2011 9.1422 17.7573 9.46833ZM51.6939 28.2568L44.7546 31.4422L43.0064 34.4318L43.1795 34.5318C44.5028 35.2958 46.0855 35.4977 47.5602 35.1025C49.042 34.7055 50.3012 33.7476 51.069 32.4179C51.7951 31.1601 52.0133 29.6677 51.6939 28.2568Z" fill="#B0B0B0"/>
</svg>
