<svg width="65" height="65" viewBox="0 0 65 65" fill="none" xmlns="http://www.w3.org/2000/svg">
<path d="M60.0611 31.4713H63.375V31.19C63.375 29.8315 62.3939 28.6789 61.0491 28.4593L47.9512 26.3324L40.5755 18.2431C39.862 17.4678 38.8534 17.0219 37.7968 17.0219H18.4073C17.2821 17.0219 16.2186 17.5227 15.505 18.3872L10.3729 24.6239L3.18935 27.4095C2.24934 27.7801 1.625 28.6857 1.625 29.6943V39.4371C1.625 40.7956 2.72276 41.8934 4.07442 41.8934H5.77596C5.77596 37.3994 9.43295 33.7492 13.9201 33.7492C18.4141 33.7492 22.0711 37.3994 22.0711 41.8934H43.7728C43.7728 37.3994 47.4298 33.7492 51.9238 33.7492C56.411 33.7492 60.0679 37.3994 60.0679 41.8934H60.9256C62.2772 41.8934 63.375 40.7956 63.375 39.4371V33.5297H60.0611C59.4985 33.5297 59.0319 33.07 59.0319 32.5005C59.0319 31.931 59.4985 31.4713 60.0611 31.4713ZM27.0385 28.0682H15.5942C14.5033 28.0682 13.9064 26.7989 14.5993 25.9619L18.1877 21.6051C18.4279 21.31 18.7915 21.1385 19.1826 21.1385H27.0385V28.0682ZM41.049 28.0682H30.9769V21.1385H37.0695C37.4331 21.1385 37.7762 21.2894 38.0232 21.557L41.9958 25.9138C42.7505 26.7372 42.1673 28.0682 41.049 28.0682Z" fill="#B0B0B0"/>
<path d="M51.9227 35.8059C48.554 35.8059 45.8301 38.5297 45.8301 41.8917C45.8301 45.2536 48.554 47.9775 51.9227 47.9775C55.2847 47.9775 58.0086 45.2536 58.0086 41.8917C58.0086 38.5297 55.2847 35.8059 51.9227 35.8059ZM51.9227 43.8745C50.825 43.8745 49.933 42.9826 49.933 41.8917C49.933 40.8008 50.825 39.9088 51.9227 39.9088C53.0137 39.9088 53.9056 40.8008 53.9056 41.8917C53.9056 42.9826 53.0137 43.8745 51.9227 43.8745Z" fill="#B0B0B0"/>
<path d="M13.9214 35.8059C10.5595 35.8059 7.83557 38.5297 7.83557 41.8917C7.83557 45.2536 10.5595 47.9775 13.9214 47.9775C17.2833 47.9775 20.014 45.2536 20.014 41.8917C20.014 38.5297 17.2833 35.8059 13.9214 35.8059ZM13.9214 43.8745C12.8305 43.8745 11.9385 42.9826 11.9385 41.8917C11.9385 40.8008 12.8305 39.9088 13.9214 39.9088C15.0192 39.9088 15.9042 40.8008 15.9042 41.8917C15.9042 42.9826 15.0192 43.8745 13.9214 43.8745Z" fill="#B0B0B0"/>
</svg>
