<svg width="42" height="42" viewBox="0 0 42 42" fill="none" xmlns="http://www.w3.org/2000/svg">
<path fill-rule="evenodd" clip-rule="evenodd" d="M34.7719 26.6519L40.9998 32.8798C41.6403 33.5223 42 34.3925 42 35.2997C42 36.2069 41.6403 37.0771 40.9998 37.7196C40.4376 38.2833 39.8313 38.8012 39.1869 39.2687L27.4717 27.5532L27.4832 27.5418L28.373 26.6519C29.2225 25.8051 30.373 25.3296 31.5725 25.3296C32.7719 25.3296 33.9224 25.8051 34.7719 26.6519ZM38.0472 40.0141L26.3588 28.3258C25.6286 28.6612 24.8134 28.7658 24.0222 28.6257C23.231 28.4856 22.5013 28.1075 21.9306 27.5418L14.4581 20.0693C13.8924 19.4986 13.5143 18.7689 13.3742 17.9777C13.2341 17.1865 13.3388 16.3713 13.6741 15.6411L1.98573 3.95276C-0.387763 8.0001 -0.443463 12.764 0.820311 17.3987C2.38153 23.1253 5.97187 28.6567 9.65729 32.3425C13.3427 36.0282 18.8745 39.6184 24.6012 41.1796C29.2359 42.4429 34 42.3876 38.0474 40.0141H38.0472ZM2.73106 2.8126C3.19853 2.16833 3.71652 1.56229 4.28014 1.00021C4.92262 0.35968 5.79284 0 6.70006 0C7.60729 0 8.47751 0.35968 9.11999 1.00021L15.348 7.22802C16.1947 8.07748 16.6701 9.22791 16.6701 10.4272C16.6701 11.6266 16.1947 12.777 15.348 13.6265L14.458 14.5167L14.4467 14.5282L2.73106 2.8126ZM22.2489 5.72471L25.5117 8.98701C30.1968 5.87624 35.873 4.62304 41.4323 5.47206V5.47403C41.5906 5.4983 41.7347 5.57889 41.8383 5.70097C41.9418 5.82305 41.9979 5.97842 41.996 6.1385C41.9941 6.29858 41.9345 6.4526 41.8282 6.57225C41.7218 6.6919 41.5758 6.76913 41.4171 6.78973C39.1605 7.07367 36.9849 7.81182 35.0215 8.95965C33.058 10.1075 31.3475 11.6412 29.993 13.4682L33.254 16.7292L33.2524 16.7308C33.3401 16.8185 33.4015 16.9291 33.4296 17.0499C33.4578 17.1707 33.4515 17.297 33.4115 17.4145C33.3716 17.5319 33.2995 17.6358 33.2036 17.7145C33.1076 17.7931 32.9915 17.8433 32.8685 17.8593L20.2318 19.503C20.13 19.5183 20.0261 19.5098 19.9281 19.4781C19.8302 19.4464 19.741 19.3924 19.6675 19.3204C19.594 19.2484 19.5382 19.1603 19.5045 19.063C19.4708 18.9658 19.4601 18.862 19.4733 18.76L21.1118 6.16333C21.1181 6.03442 21.1617 5.91011 21.2373 5.80548C21.3128 5.70086 21.4172 5.62043 21.5376 5.57396C21.658 5.52749 21.7893 5.51697 21.9156 5.54369C22.0419 5.57041 22.1577 5.63321 22.2489 5.72447V5.72471Z" fill="#B0B0B0"/>
</svg>
