<svg width="27" height="50" viewBox="0 0 27 50" fill="none" xmlns="http://www.w3.org/2000/svg">
<path d="M25.6688 30.4405C25.4273 29.6228 25.1343 28.9111 24.7902 28.3067C24.4463 27.7018 23.9538 27.1117 23.3116 26.5345C22.6702 25.9576 22.0932 25.493 21.5816 25.1398C21.0702 24.7863 20.3678 24.3911 19.4748 23.9537C18.5825 23.5163 17.8755 23.1909 17.3551 22.9768C16.834 22.7631 16.0802 22.4701 15.0942 22.0981C14.22 21.7634 13.5692 21.5076 13.1409 21.331C12.7131 21.1542 12.1506 20.9032 11.453 20.5775C10.7557 20.2522 10.2348 19.9637 9.89059 19.7127C9.54649 19.4618 9.17922 19.1549 8.78849 18.7922C8.39777 18.4296 8.12344 18.0435 7.96521 17.6343C7.80738 17.225 7.72822 16.7785 7.72822 16.2948C7.72822 15.0302 8.28606 13.9975 9.40214 13.1979C10.5183 12.3982 11.9601 11.9982 13.7274 11.9982C14.5082 11.9982 15.3044 12.105 16.113 12.3192C16.9216 12.5333 17.6146 12.7745 18.1913 13.0444C18.7685 13.3144 19.3124 13.612 19.8241 13.9374C20.3357 14.263 20.6983 14.5093 20.9124 14.6767C21.1263 14.8442 21.2619 14.9557 21.3171 15.0116C21.5593 15.1976 21.8098 15.2626 22.0702 15.207C22.3491 15.1884 22.5633 15.0394 22.7124 14.7607L24.9729 10.6869C25.196 10.315 25.1499 9.96153 24.8334 9.62651C24.7216 9.51491 24.5827 9.38483 24.4141 9.23589C24.2471 9.08695 23.8843 8.81731 23.3258 8.42649C22.7678 8.03596 22.1772 7.68716 21.5545 7.38019C20.9311 7.07351 20.1217 6.76175 19.1264 6.44569C18.1317 6.12914 17.1037 5.91541 16.0431 5.8039V0.892862C16.0431 0.632607 15.9595 0.418578 15.7926 0.251069C15.6253 0.0839502 15.4113 0 15.1504 0H11.3833C11.1415 0 10.9323 0.0882503 10.7556 0.265044C10.5789 0.441838 10.4906 0.65098 10.4906 0.892862V5.91531C7.56999 6.47315 5.19828 7.71951 3.37532 9.65407C1.55255 11.5887 0.640829 13.8392 0.640829 16.4064C0.640829 17.169 0.720187 17.8945 0.878314 18.5824C1.03625 19.2709 1.23171 19.8894 1.4643 20.4381C1.69671 20.9872 2.02703 21.5264 2.4548 22.0567C2.88256 22.5868 3.28726 23.0426 3.66851 23.4238C4.04995 23.8048 4.54759 24.2002 5.16124 24.6093C5.77528 25.0188 6.30077 25.3492 6.73802 25.6002C7.17536 25.8504 7.75656 26.1397 8.48181 26.4644C9.20727 26.7902 9.77948 27.0364 10.1981 27.2042C10.6166 27.3714 11.1885 27.6042 11.9143 27.9012C12.9187 28.2918 13.6629 28.5942 14.1464 28.8082C14.6304 29.0222 15.2441 29.3198 15.9886 29.7012C16.7324 30.0821 17.2763 30.431 17.6207 30.7474C17.9648 31.0637 18.2762 31.4543 18.5554 31.9192C18.8347 32.3841 18.9745 32.8771 18.9745 33.3982C18.9745 34.8678 18.4025 36.0022 17.2582 36.8014C16.1143 37.6016 14.7885 38.0015 13.282 38.0015C12.5944 38.0015 11.9056 37.9275 11.2176 37.7787C8.79934 37.2945 6.53933 36.1319 4.43735 34.2905L4.38155 34.2347C4.21404 34.0306 3.99073 33.9467 3.712 33.9842C3.41431 34.0213 3.20028 34.133 3.0702 34.3194L0.196157 38.0859C-0.0829602 38.4579 -0.0640977 38.8391 0.252059 39.2297C0.345196 39.3415 0.507917 39.5093 0.740319 39.7321C0.973308 39.9558 1.40586 40.304 2.03798 40.7793C2.67029 41.2538 3.35861 41.6997 4.10282 42.1187C4.84694 42.5371 5.79082 42.9508 6.93504 43.3602C8.07926 43.7689 9.26483 44.0571 10.4926 44.2244V49.1073C10.4926 49.3495 10.5811 49.5586 10.7577 49.7354C10.9345 49.9124 11.1436 50.0004 11.3854 50.0004H15.1525C15.4133 50.0004 15.6274 49.9168 15.7946 49.7496C15.9618 49.5824 16.0451 49.3684 16.0451 49.1074V44.2245C19.0032 43.741 21.4075 42.4714 23.2581 40.4158C25.1089 38.3602 26.0346 35.9095 26.0346 33.0637C26.0337 32.1338 25.913 31.2595 25.6688 30.4405Z" fill="#B0B0B0"/>
</svg>
