<svg width="20" height="10" viewBox="0 0 20 10" fill="none" xmlns="http://www.w3.org/2000/svg">
<path opacity="0.35" fill-rule="evenodd" clip-rule="evenodd" d="M1.87813 0H16.1519C17.1892 0 18.03 0.927853 18.03 2.07242V7.4607C18.03 8.60526 17.1892 9.53312 16.1519 9.53312H1.87813C0.840867 9.53312 0 8.60526 0 7.4607V2.07242C0 0.927853 0.840867 0 1.87813 0ZM1.87688 0.828857C1.25452 0.828857 0.75 1.38557 0.75 2.07231V7.46059C0.75 8.14733 1.25452 8.70404 1.87688 8.70404H16.1506C16.773 8.70404 17.2775 8.14733 17.2775 7.46059V2.07231C17.2775 1.38557 16.773 0.828857 16.1506 0.828857H1.87688Z" fill="white"/>
<path opacity="0.4" fill-rule="evenodd" clip-rule="evenodd" d="M18.7812 2.73413C19.4502 3.11146 19.9081 3.87933 19.9081 4.76522C19.9081 5.65111 19.4502 6.41898 18.7812 6.79631V2.73413Z" fill="white"/>
<path fill-rule="evenodd" clip-rule="evenodd" d="M2.25516 1.65747H15.7777C16.1926 1.65747 16.5289 2.02861 16.5289 2.48644V7.04575C16.5289 7.50358 16.1926 7.87472 15.7777 7.87472H2.25516C1.84025 7.87472 1.50391 7.50358 1.50391 7.04575V2.48644C1.50391 2.02861 1.84025 1.65747 2.25516 1.65747Z" fill="white"/>
</svg>
