<svg width="53" height="53" viewBox="0 0 53 53" fill="none" xmlns="http://www.w3.org/2000/svg">
<path d="M9.31914 41.1619C9.10081 41.1619 8.89141 41.0752 8.73703 40.9208C8.58264 40.7664 8.49591 40.557 8.49591 40.3387C8.49591 40.1204 8.58264 39.911 8.73703 39.7566C8.89141 39.6022 9.10081 39.5155 9.31914 39.5155H27.6938L25.364 36.5436C25.2713 36.42 25.214 36.2735 25.198 36.1198C25.1821 35.9661 25.2082 35.811 25.2735 35.671L25.825 34.5761H9.31914C9.10081 34.5761 8.89141 34.4893 8.73703 34.3349C8.58264 34.1805 8.49591 33.9712 8.49591 33.7528C8.49591 33.5345 8.58264 33.3251 8.73703 33.1707C8.89141 33.0163 9.10081 32.9296 9.31914 32.9296H26.6483L28.1548 29.9083C28.224 29.7715 28.33 29.6566 28.4609 29.5766C28.5918 29.4967 28.7423 29.4547 28.8957 29.4555H38.3629V14.4644H32.1228C30.8135 14.462 29.5586 13.9408 28.6328 13.015C27.707 12.0892 27.1858 10.8343 27.1834 9.52499V3.29309H10.5458C9.06369 3.29449 7.64272 3.88385 6.59474 4.93184C5.54676 5.97982 4.95739 7.40079 4.95599 8.88286V43.8045C4.9574 45.2866 5.54677 46.7076 6.59475 47.7555C7.64273 48.8035 9.0637 49.3929 10.5458 49.3943H32.7731C33.5564 49.3956 34.331 49.2301 35.0453 48.9086L28.978 41.1619H9.31914ZM9.31914 13.1719H21.6677C21.886 13.1719 22.0954 13.2587 22.2498 13.413C22.4042 13.5674 22.4909 13.7768 22.4909 13.9952C22.4909 14.2135 22.4042 14.4229 22.2498 14.5773C22.0954 14.7317 21.886 14.8184 21.6677 14.8184H9.31914C9.10081 14.8184 8.89141 14.7317 8.73703 14.5773C8.58264 14.4229 8.49591 14.2135 8.49591 13.9952C8.49591 13.7768 8.58264 13.5674 8.73703 13.413C8.89141 13.2587 9.10081 13.1719 9.31914 13.1719ZM9.31914 19.7578H24.9524C25.1707 19.7578 25.3801 19.8445 25.5345 19.9989C25.6889 20.1533 25.7756 20.3627 25.7756 20.581C25.7756 20.7994 25.6889 21.0088 25.5345 21.1632C25.3801 21.3175 25.1707 21.4043 24.9524 21.4043H9.31914C9.10081 21.4043 8.89141 21.3175 8.73703 21.1632C8.58264 21.0088 8.49591 20.7994 8.49591 20.581C8.49591 20.3627 8.58264 20.1533 8.73703 19.9989C8.89141 19.8445 9.10081 19.7578 9.31914 19.7578ZM9.31914 26.3437H34.008C34.2263 26.3437 34.4357 26.4304 34.5901 26.5848C34.7445 26.7392 34.8312 26.9486 34.8312 27.1669C34.8312 27.3853 34.7445 27.5947 34.5901 27.749C34.4357 27.9034 34.2263 27.9902 34.008 27.9902H9.31914C9.10081 27.9902 8.89141 27.9034 8.73703 27.749C8.58264 27.5947 8.49591 27.3853 8.49591 27.1669C8.49591 26.9486 8.58264 26.7392 8.73703 26.5848C8.89141 26.4304 9.10081 26.3437 9.31914 26.3437Z" fill="#B0B0B0"/>
<path d="M32.1228 12.8187H37.8772L28.8298 3.77136V9.52578C28.831 10.3988 29.1783 11.2357 29.7956 11.853C30.4129 12.4703 31.2498 12.8176 32.1228 12.8187Z" fill="#B0B0B0"/>
<path d="M39.5433 46.8671L47.3723 36.8647H42.4823L39.5433 46.8671Z" fill="#B0B0B0"/>
<path d="M47.7322 35.2182L45.6741 31.1021H41.4756L42.5047 35.2182H47.7322Z" fill="#B0B0B0"/>
<path d="M34.3219 36.8647L37.5408 47.8467L40.7596 36.8647H34.3219Z" fill="#B0B0B0"/>
<path d="M34.2723 35.2182H40.8088L39.7798 31.1021H35.3014L34.2723 35.2182Z" fill="#B0B0B0"/>
<path d="M27.7017 36.8647L35.5389 46.8753L32.6 36.8647H27.7017Z" fill="#B0B0B0"/>
<path d="M32.5792 35.2182L33.6083 31.1021H29.4015L27.3434 35.2182H32.5792Z" fill="#B0B0B0"/>
</svg>
