<svg width="16" height="16" viewBox="0 0 16 16" fill="none" xmlns="http://www.w3.org/2000/svg">
<path d="M14.5 14.5L10 10M1 6.25C1 6.93944 1.1358 7.62213 1.39963 8.25909C1.66347 8.89605 2.05018 9.4748 2.53769 9.96231C3.0252 10.4498 3.60395 10.8365 4.24091 11.1004C4.87787 11.3642 5.56056 11.5 6.25 11.5C6.93944 11.5 7.62213 11.3642 8.25909 11.1004C8.89605 10.8365 9.4748 10.4498 9.96231 9.96231C10.4498 9.4748 10.8365 8.89605 11.1004 8.25909C11.3642 7.62213 11.5 6.93944 11.5 6.25C11.5 5.56056 11.3642 4.87787 11.1004 4.24091C10.8365 3.60395 10.4498 3.0252 9.96231 2.53769C9.4748 2.05018 8.89605 1.66347 8.25909 1.39963C7.62213 1.1358 6.93944 1 6.25 1C5.56056 1 4.87787 1.1358 4.24091 1.39963C3.60395 1.66347 3.0252 2.05018 2.53769 2.53769C2.05018 3.0252 1.66347 3.60395 1.39963 4.24091C1.1358 4.87787 1 5.56056 1 6.25Z" stroke="white" stroke-width="1.5" stroke-linecap="round" stroke-linejoin="round"/>
</svg>
