<svg width="47" height="50" viewBox="0 0 47 50" fill="none" xmlns="http://www.w3.org/2000/svg">
<path d="M44.6593 29.1413L42.4099 27.4385C41.6678 26.8758 41.2964 26.0123 41.2996 25.784C41.3085 25.7133 41.3133 25.6425 41.3133 25.5718V23.8224C41.3133 23.7516 41.3101 23.697 41.3012 23.6262C41.2964 23.3818 41.6678 22.5168 42.4099 21.954L44.6585 20.2513C46.4135 18.9232 46.9248 16.3908 45.825 14.487L43.3545 10.2084C42.2973 8.37707 39.7392 7.5072 37.7792 8.33687L35.1792 9.43345C34.438 9.74538 33.2683 9.61031 33.1919 9.56851C33.1356 9.5251 33.0769 9.4849 33.015 9.44953L31.5004 8.57484C31.4393 8.53947 31.3902 8.51535 31.3251 8.48801C31.1105 8.36903 30.5469 7.61493 30.4311 6.69201L30.0838 3.90876C30.083 3.90394 30.0822 3.89751 30.0814 3.89268C29.8081 1.70918 27.8714 0 25.6718 0H20.7324C18.5328 0 16.5961 1.70918 16.3228 3.89268L16.371 3.89751C16.2432 4.52458 16.1314 5.41696 15.9723 6.6904C15.8557 7.61493 15.2929 8.36903 15.0935 8.48158C15.0284 8.50891 14.9649 8.53947 14.9038 8.57484L13.3892 9.44953C13.3281 9.4849 13.2831 9.51384 13.2268 9.55725C13.1753 9.5878 12.9285 9.67785 12.4912 9.67785C12.0555 9.67785 11.5924 9.5878 11.2218 9.43184L8.62423 8.33687C6.66181 7.51203 4.10608 8.37868 3.04809 10.2101L0.579191 14.4886C-0.521405 16.3924 -0.0100983 18.9248 1.74491 20.2529L3.99433 21.9556C4.73637 22.5184 5.10779 23.3818 5.10458 23.6101C5.09573 23.6809 5.09091 23.7516 5.09091 23.8224V25.5718C5.09091 25.6425 5.09413 25.6972 5.10297 25.7679C5.10779 26.0123 4.73637 26.8774 3.99433 27.4401L1.74571 29.1429C-0.00929439 30.471 -0.520601 33.0034 0.579191 34.9071L3.0497 39.1857C4.10689 41.0155 6.66181 41.8805 8.62504 41.0589L11.225 39.9623C11.9662 39.6456 13.1343 39.7838 13.2123 39.8256C13.2686 39.8691 13.3273 39.9093 13.3892 39.9446L14.9038 40.8193C14.9649 40.8547 15.014 40.8788 15.0791 40.9061C15.2937 41.0251 15.8573 41.7792 15.9731 42.7038L16.3236 45.5015C16.5969 47.685 18.5336 49.3942 20.7332 49.3942H25.6726C27.873 49.3942 29.8105 47.6834 30.0822 45.5015L30.4328 42.7021C30.5485 41.7792 31.1105 41.0251 31.3099 40.9126C31.3758 40.8852 31.4393 40.8547 31.5004 40.8193L33.015 39.9446C33.0761 39.9093 33.1211 39.8803 33.1766 39.8369C33.2795 39.7758 34.4388 39.6472 35.1824 39.9623L37.78 41.0573C39.7408 41.8805 42.2981 41.0155 43.3561 39.1841L45.825 34.9055C46.9256 33.0018 46.4143 30.4694 44.6593 29.1413ZM23.2021 31.283C19.5707 31.283 16.6162 28.3277 16.6162 24.6971C16.6162 21.0665 19.5707 18.1112 23.2021 18.1112C26.8335 18.1112 29.788 21.0665 29.788 24.6971C29.788 28.3277 26.8335 31.283 23.2021 31.283Z" fill="#B0B0B0"/>
</svg>
