<svg width="15" height="12" viewBox="0 0 15 12" fill="none" xmlns="http://www.w3.org/2000/svg">
<path opacity="0.25" fill-rule="evenodd" clip-rule="evenodd" d="M11.7301 1.65723H12.4406C12.833 1.65723 13.1512 2.02837 13.1512 2.48619V9.11793C13.1512 9.57575 12.833 9.94689 12.4406 9.94689H11.7301C11.3377 9.94689 11.0195 9.57575 11.0195 9.11793V2.48619C11.0195 2.02837 11.3377 1.65723 11.7301 1.65723Z" fill="white"/>
<path d="M2.83887 6.21704C3.23129 6.21704 3.5498 6.58832 3.5498 7.04614V9.11841C3.54965 9.57608 3.23119 9.94751 2.83887 9.94751H2.12891C1.73658 9.94751 1.41812 9.57608 1.41797 9.11841V7.04614C1.41797 6.58832 1.73648 6.21704 2.12891 6.21704H2.83887ZM6.03809 4.97388C6.43051 4.97388 6.74902 5.34515 6.74902 5.80298V9.11841C6.74902 9.57623 6.43051 9.94751 6.03809 9.94751H5.32812C4.9357 9.94751 4.61719 9.57623 4.61719 9.11841V5.80298C4.61719 5.34515 4.9357 4.97388 5.32812 4.97388H6.03809ZM9.2334 3.31567C9.62582 3.31567 9.94434 3.68695 9.94434 4.14478V9.11841C9.94434 9.57623 9.62582 9.94751 9.2334 9.94751H8.52344C8.13102 9.94751 7.8125 9.57623 7.8125 9.11841V4.14478C7.8125 3.68695 8.13102 3.31567 8.52344 3.31567H9.2334Z" fill="white"/>
</svg>
