<svg width="13" height="12" viewBox="0 0 13 12" fill="none" xmlns="http://www.w3.org/2000/svg">
<path d="M5.54748 1.48784C5.84683 0.566529 7.15024 0.566531 7.44959 1.48784L8.07013 3.39767C8.20401 3.8097 8.58796 4.08865 9.02119 4.08865H11.0293C11.998 4.08865 12.4008 5.32827 11.6171 5.89767L9.99249 7.07801C9.642 7.33266 9.49535 7.78402 9.62922 8.19605L10.2498 10.1059C10.5491 11.0272 9.49463 11.7933 8.71092 11.2239L7.08632 10.0436C6.73583 9.78893 6.26124 9.78893 5.91075 10.0436L4.28615 11.2239C3.50244 11.7933 2.44796 11.0272 2.74731 10.1059L3.36785 8.19605C3.50173 7.78402 3.35507 7.33266 3.00458 7.07801L1.37998 5.89767C0.596266 5.32827 0.999043 4.08865 1.96777 4.08865H3.97588C4.40911 4.08865 4.79306 3.80969 4.92694 3.39767L5.54748 1.48784Z" fill="#D9D9D9" fill-opacity="0.15"/>
</svg>
