<svg width="43" height="53" viewBox="0 0 43 53" fill="none" xmlns="http://www.w3.org/2000/svg">
<path d="M21.4003 23.0506C27.7656 23.0506 32.9256 17.8906 32.9256 11.5253C32.9256 5.16005 27.7656 0 21.4003 0C15.0351 0 9.875 5.16005 9.875 11.5253C9.875 17.8906 15.0351 23.0506 21.4003 23.0506Z" fill="#B0B0B0"/>
<path d="M42.7252 44.0453C41.8535 39.0424 39.2288 34.5133 35.3215 31.2696C31.4141 28.0259 26.4794 26.2795 21.4015 26.3434C16.3235 26.2795 11.3888 28.0259 7.48144 31.2696C3.57407 34.5133 0.949408 39.0424 0.0777173 44.0453C-0.0760777 45.097 -0.00112804 46.1695 0.297449 47.1895C0.596027 48.2096 1.1112 49.1532 1.8078 49.9559C2.55801 50.8188 3.4857 51.5095 4.52744 51.9809C5.56918 52.4522 6.70041 52.693 7.8438 52.6869H34.9591C36.1025 52.693 37.2337 52.4522 38.2755 51.9808C39.3172 51.5095 40.2449 50.8188 40.9951 49.9559C41.6917 49.1532 42.2069 48.2096 42.5055 47.1895C42.804 46.1695 42.879 45.097 42.7252 44.0453Z" fill="#B0B0B0"/>
</svg>
