<svg width="12" height="9" viewBox="0 0 12 9" fill="none" xmlns="http://www.w3.org/2000/svg">
<path d="M5.51848 5.75293C6.01301 5.753 6.49349 5.8918 6.91692 6.15723L7.0888 6.26465C7.21881 6.34617 7.24204 6.53734 7.13567 6.65137L5.66985 8.21777C5.57988 8.31366 5.43364 8.31368 5.34368 8.21777L3.88763 6.66113C3.78183 6.5477 3.80393 6.3586 3.93255 6.27637L4.10247 6.16797C4.52997 5.89563 5.01717 5.75293 5.51848 5.75293ZM5.52141 2.87695C6.75206 2.87695 7.93378 3.31409 8.89641 4.12402L9.03313 4.23926C9.14123 4.33055 9.15097 4.50221 9.05364 4.60645L8.17864 5.54102C8.09774 5.62746 7.96962 5.63747 7.87786 5.56445L7.77141 5.47949C7.1212 4.96174 6.33664 4.68457 5.52141 4.68457C4.70127 4.6846 3.91299 4.96565 3.26067 5.48926L3.15325 5.5752C3.06153 5.64851 2.93352 5.63831 2.85247 5.55176L1.97747 4.61719C1.88029 4.51307 1.88911 4.34138 1.997 4.25L2.13274 4.13574C3.09769 3.31845 4.28475 2.87698 5.52141 2.87695ZM5.51848 0C7.47184 0 9.33972 0.738615 10.8183 2.0918L10.9443 2.20703C11.0463 2.30038 11.0529 2.4669 10.9579 2.56836L10.0859 3.5C10.0014 3.59027 9.8659 3.59667 9.77434 3.51465L9.66692 3.41797C8.5028 2.37503 7.04332 1.80762 5.51848 1.80762C3.98866 1.80763 2.52508 2.37854 1.35931 3.42773L1.25091 3.52539C1.15937 3.60778 1.02401 3.60117 0.939383 3.51074L0.0673129 2.5791C-0.0271952 2.47778 -0.0214796 2.31211 0.0800082 2.21875L0.205985 2.10352C1.68636 0.743032 3.55936 1.17923e-05 5.51848 0Z" fill="white"/>
</svg>
